<svg width="158" height="40" viewBox="0 0 158 40" fill="none" xmlns="http://www.w3.org/2000/svg">
<path d="M5.56096 12.8855L5.31098 13.0298V13.3185V19.9582V20.8243L6.061 20.3912L11.0643 17.5023V30.0069V30.2957L11.3145 30.44L17.0637 33.7557L17.8135 34.1882V33.3226V13.6051L23.3148 10.4296L24.0649 9.99652L23.3148 9.56349L17.5635 6.24362L17.3135 6.0993L17.0635 6.24365L5.56096 12.8855ZM22.8473 16.2355L22.5974 16.3799V16.6685V29.9977V30.8635L23.3474 30.4307L29.1214 27.0984L29.3715 26.9541V26.6654V13.332V12.4656L28.6213 12.8991L22.8473 16.2355ZM17.3201 39.4226L0.5 29.7103V10.2877L17.3201 0.577339L34.1402 10.2877V29.7103L17.3201 39.4226Z" fill="black" stroke="black"/>
<path d="M61.0625 22C61.0625 23.3398 60.9531 24.4609 60.7344 25.3633C60.5156 26.2565 60.1465 26.972 59.627 27.5098C59.1165 28.0475 58.4421 28.4303 57.6035 28.6582C56.765 28.8861 55.7305 29 54.5 29C53.306 29 52.3034 28.9089 51.4922 28.7266C50.681 28.5443 50.0247 28.2344 49.5234 27.7969C49.0221 27.3594 48.6621 26.776 48.4434 26.0469C48.2246 25.3177 48.1152 24.4062 48.1152 23.3125V15.4102H44.875V13.25H48.1152V8.94336H50.7402V13.25H60.625V15.4102H50.7402V23.3125C50.7402 24.1875 50.804 24.862 50.9316 25.3359C51.0684 25.8099 51.2826 26.1562 51.5742 26.375C51.8659 26.5938 52.2487 26.7214 52.7227 26.7578C53.2057 26.7943 53.7936 26.8125 54.4863 26.8125C55.0332 26.8125 55.5208 26.8034 55.9492 26.7852C56.3867 26.7669 56.765 26.7122 57.084 26.6211C57.4121 26.5208 57.6901 26.375 57.918 26.1836C58.1458 25.9831 58.3281 25.7051 58.4648 25.3496C58.6107 24.9941 58.7155 24.5475 58.7793 24.0098C58.8431 23.4629 58.875 22.793 58.875 22H61.0625Z" fill="black"/>
<path d="M66.8375 13.25H69.4625V29H66.8375V13.25ZM69.4625 10.625H66.8375V8H69.4625V10.625Z" fill="black"/>
<path d="M84.425 29.3008C82.675 29.3008 81.1893 29.1732 79.968 28.918C78.7466 28.6628 77.7531 28.2253 76.9875 27.6055C76.2219 26.9857 75.6659 26.1517 75.3195 25.1035C74.9732 24.0553 74.8 22.7383 74.8 21.1523C74.8 19.5117 74.9732 18.1536 75.3195 17.0781C75.6659 16.0026 76.2219 15.1504 76.9875 14.5215C77.7531 13.8926 78.7466 13.4505 79.968 13.1953C81.1893 12.9401 82.675 12.8125 84.425 12.8125C85.6646 12.8125 86.7036 12.8763 87.5422 13.0039C88.3807 13.1315 89.0643 13.291 89.593 13.4824C90.1307 13.6738 90.5363 13.8835 90.8098 14.1113C91.0923 14.3301 91.2974 14.5352 91.425 14.7266V8H94.05V29H91.425V26.6621C91.425 26.6621 91.2062 26.9219 90.7687 27.4414C90.3859 27.8151 89.9621 28.1159 89.4973 28.3438C89.0324 28.5716 88.3807 28.7904 87.5422 29C86.7036 29.2005 85.6646 29.3008 84.425 29.3008ZM84.425 27.25C85.3 27.25 86.0793 27.2318 86.7629 27.1953C87.4465 27.1497 88.048 27.0586 88.5676 26.9219C89.0871 26.7852 89.5246 26.5846 89.8801 26.3203C90.2447 26.0469 90.5409 25.6868 90.7687 25.2402C90.9966 24.7936 91.1607 24.2422 91.2609 23.5859C91.3703 22.9206 91.425 22.123 91.425 21.1934C91.425 20.2272 91.3703 19.4069 91.2609 18.7324C91.1607 18.0488 90.9966 17.4792 90.7687 17.0234C90.5409 16.5586 90.2447 16.194 89.8801 15.9297C89.5246 15.6654 89.0871 15.4648 88.5676 15.3281C88.048 15.1823 87.4465 15.0911 86.7629 15.0547C86.0793 15.0182 85.3 15 84.425 15C83.4042 15 82.5201 15.0319 81.7727 15.0957C81.0344 15.1595 80.4055 15.2734 79.8859 15.4375C79.3664 15.6016 78.9426 15.8294 78.6145 16.1211C78.2954 16.4128 78.0448 16.7865 77.8625 17.2422C77.6893 17.6979 77.5708 18.2493 77.507 18.8965C77.4523 19.5345 77.425 20.2865 77.425 21.1523C77.425 22.0091 77.4523 22.7565 77.507 23.3945C77.5708 24.0234 77.6893 24.5658 77.8625 25.0215C78.0448 25.4681 78.2954 25.8372 78.6145 26.1289C78.9426 26.4206 79.3664 26.6484 79.8859 26.8125C80.4055 26.9766 81.0344 27.0905 81.7727 27.1543C82.5201 27.2181 83.4042 27.25 84.425 27.25Z" fill="black"/>
<path d="M108.575 29.3008C107.317 29.3008 106.269 29.2142 105.43 29.041C104.601 28.877 103.922 28.6992 103.393 28.5078C102.865 28.3073 102.464 27.9974 102.19 27.5781C101.917 27.1497 101.712 26.8171 101.575 26.5801V29H98.95V8H101.575V14.7402C101.693 14.5488 101.889 14.3438 102.163 14.125C102.445 13.8971 102.851 13.6875 103.38 13.4961C103.917 13.2956 104.606 13.1315 105.444 13.0039C106.283 12.8763 107.326 12.8125 108.575 12.8125C110.325 12.8125 111.811 12.9447 113.032 13.209C114.253 13.4733 115.247 13.9245 116.012 14.5625C116.778 15.2005 117.334 16.0573 117.68 17.1328C118.027 18.1992 118.2 19.5391 118.2 21.1523C118.2 22.7383 118.027 24.0553 117.68 25.1035C117.334 26.1517 116.778 26.9857 116.012 27.6055C115.247 28.2253 114.253 28.6628 113.032 28.918C111.811 29.1732 110.325 29.3008 108.575 29.3008ZM108.575 27.25C109.596 27.25 110.475 27.2181 111.214 27.1543C111.961 27.0905 112.595 26.9766 113.114 26.8125C113.634 26.6484 114.053 26.4206 114.372 26.1289C114.7 25.8372 114.951 25.4681 115.124 25.0215C115.306 24.5658 115.425 24.0234 115.479 23.3945C115.543 22.7565 115.575 22.0091 115.575 21.1523C115.575 20.2956 115.543 19.5482 115.479 18.9102C115.425 18.2721 115.306 17.7298 115.124 17.2832C114.951 16.8275 114.7 16.4538 114.372 16.1621C114.053 15.8613 113.634 15.6289 113.114 15.4648C112.595 15.2917 111.961 15.1732 111.214 15.1094C110.475 15.0456 109.596 15.0137 108.575 15.0137C107.7 15.0137 106.921 15.0365 106.237 15.082C105.554 15.1185 104.952 15.2096 104.432 15.3555C103.913 15.5013 103.471 15.7109 103.106 15.9844C102.751 16.2578 102.459 16.6224 102.231 17.0781C102.003 17.5339 101.835 18.099 101.725 18.7734C101.625 19.4479 101.575 20.2546 101.575 21.1934C101.575 22.123 101.625 22.9206 101.725 23.5859C101.835 24.2422 102.003 24.7936 102.231 25.2402C102.459 25.6868 102.751 26.0469 103.106 26.3203C103.471 26.5846 103.913 26.7852 104.432 26.9219C104.952 27.0586 105.554 27.1497 106.237 27.1953C106.921 27.2318 107.7 27.25 108.575 27.25Z" fill="black"/>
<path d="M125.287 29H122.662V26.375H125.287V29Z" fill="black"/>
<path d="M145.869 26.8398C145.842 26.9492 145.637 27.2227 145.254 27.6602C144.98 27.9883 144.616 28.2799 144.16 28.5352C143.704 28.7812 143.094 28.9727 142.328 29.1094C141.572 29.2552 140.574 29.3281 139.334 29.3281C137.684 29.3281 136.276 29.2415 135.109 29.0684C133.943 28.9043 132.99 28.6491 132.252 28.3027C131.514 27.9473 130.971 27.4961 130.625 26.9492C130.288 26.4023 130.119 25.7507 130.119 24.9941C130.119 24.2012 130.21 23.5312 130.393 22.9844C130.584 22.4284 130.857 21.9635 131.213 21.5898C131.577 21.2161 132.015 20.9245 132.525 20.7148C133.036 20.5052 133.615 20.3457 134.262 20.2363C134.918 20.127 135.633 20.0586 136.408 20.0312C137.183 20.0039 138.008 19.9902 138.883 19.9902C140.132 19.9902 141.175 20.0449 142.014 20.1543C142.852 20.2546 143.536 20.3867 144.064 20.5508C144.602 20.7057 145.008 20.8743 145.281 21.0566C145.555 21.2389 145.751 21.4076 145.869 21.5625C145.869 20.5417 145.824 19.6712 145.732 18.9512C145.65 18.2311 145.509 17.6296 145.309 17.1465C145.117 16.6634 144.867 16.2806 144.557 15.998C144.247 15.7064 143.864 15.4876 143.408 15.3418C142.962 15.196 142.438 15.1048 141.836 15.0684C141.234 15.0228 140.546 15 139.771 15C138.568 15 137.57 15.0319 136.777 15.0957C135.984 15.1504 135.355 15.2643 134.891 15.4375C134.426 15.6107 134.098 15.8522 133.906 16.1621C133.715 16.4629 133.619 16.8594 133.619 17.3516H130.994C130.994 16.5221 131.14 15.8203 131.432 15.2461C131.732 14.6719 132.225 14.207 132.908 13.8516C133.601 13.487 134.508 13.2227 135.629 13.0586C136.75 12.8945 138.131 12.8125 139.771 12.8125C141.376 12.8125 142.734 12.9447 143.846 13.209C144.958 13.4733 145.855 13.9382 146.539 14.6035C147.232 15.2689 147.729 16.1667 148.029 17.2969C148.339 18.418 148.494 19.8398 148.494 21.5625V29H145.869V26.8398ZM139.771 27.25C140.929 27.25 141.895 27.1953 142.67 27.0859C143.454 26.9766 144.083 26.8125 144.557 26.5938C145.031 26.375 145.368 26.1016 145.568 25.7734C145.769 25.4453 145.869 25.0625 145.869 24.625C145.869 24.1875 145.751 23.8184 145.514 23.5176C145.286 23.2077 144.898 22.957 144.352 22.7656C143.814 22.5742 143.098 22.4375 142.205 22.3555C141.312 22.2643 140.209 22.2188 138.896 22.2188C137.584 22.2188 136.522 22.2415 135.711 22.2871C134.909 22.3327 134.289 22.4375 133.852 22.6016C133.414 22.7656 133.118 23.0072 132.963 23.3262C132.817 23.6452 132.744 24.0781 132.744 24.625C132.744 25.1719 132.822 25.6185 132.977 25.9648C133.141 26.3021 133.469 26.5664 133.961 26.7578C134.453 26.9492 135.16 27.0814 136.08 27.1543C137.01 27.2181 138.24 27.25 139.771 27.25Z" fill="black"/>
<path d="M154.283 13.25H156.908V29H154.283V13.25ZM156.908 10.625H154.283V8H156.908V10.625Z" fill="black"/>
<path d="M61.0625 22C61.0625 23.3398 60.9531 24.4609 60.7344 25.3633C60.5156 26.2565 60.1465 26.972 59.627 27.5098C59.1165 28.0475 58.4421 28.4303 57.6035 28.6582C56.765 28.8861 55.7305 29 54.5 29C53.306 29 52.3034 28.9089 51.4922 28.7266C50.681 28.5443 50.0247 28.2344 49.5234 27.7969C49.0221 27.3594 48.6621 26.776 48.4434 26.0469C48.2246 25.3177 48.1152 24.4062 48.1152 23.3125V15.4102H44.875V13.25H48.1152V8.94336H50.7402V13.25H60.625V15.4102H50.7402V23.3125C50.7402 24.1875 50.804 24.862 50.9316 25.3359C51.0684 25.8099 51.2826 26.1562 51.5742 26.375C51.8659 26.5938 52.2487 26.7214 52.7227 26.7578C53.2057 26.7943 53.7936 26.8125 54.4863 26.8125C55.0332 26.8125 55.5208 26.8034 55.9492 26.7852C56.3867 26.7669 56.765 26.7122 57.084 26.6211C57.4121 26.5208 57.6901 26.375 57.918 26.1836C58.1458 25.9831 58.3281 25.7051 58.4648 25.3496C58.6107 24.9941 58.7155 24.5475 58.7793 24.0098C58.8431 23.4629 58.875 22.793 58.875 22H61.0625Z" stroke="black"/>
<path d="M66.8375 13.25H69.4625V29H66.8375V13.25ZM69.4625 10.625H66.8375V8H69.4625V10.625Z" stroke="black"/>
<path d="M84.425 29.3008C82.675 29.3008 81.1893 29.1732 79.968 28.918C78.7466 28.6628 77.7531 28.2253 76.9875 27.6055C76.2219 26.9857 75.6659 26.1517 75.3195 25.1035C74.9732 24.0553 74.8 22.7383 74.8 21.1523C74.8 19.5117 74.9732 18.1536 75.3195 17.0781C75.6659 16.0026 76.2219 15.1504 76.9875 14.5215C77.7531 13.8926 78.7466 13.4505 79.968 13.1953C81.1893 12.9401 82.675 12.8125 84.425 12.8125C85.6646 12.8125 86.7036 12.8763 87.5422 13.0039C88.3807 13.1315 89.0643 13.291 89.593 13.4824C90.1307 13.6738 90.5363 13.8835 90.8098 14.1113C91.0923 14.3301 91.2974 14.5352 91.425 14.7266V8H94.05V29H91.425V26.6621C91.425 26.6621 91.2062 26.9219 90.7687 27.4414C90.3859 27.8151 89.9621 28.1159 89.4973 28.3438C89.0324 28.5716 88.3807 28.7904 87.5422 29C86.7036 29.2005 85.6646 29.3008 84.425 29.3008ZM84.425 27.25C85.3 27.25 86.0793 27.2318 86.7629 27.1953C87.4465 27.1497 88.048 27.0586 88.5676 26.9219C89.0871 26.7852 89.5246 26.5846 89.8801 26.3203C90.2447 26.0469 90.5409 25.6868 90.7687 25.2402C90.9966 24.7936 91.1607 24.2422 91.2609 23.5859C91.3703 22.9206 91.425 22.123 91.425 21.1934C91.425 20.2272 91.3703 19.4069 91.2609 18.7324C91.1607 18.0488 90.9966 17.4792 90.7687 17.0234C90.5409 16.5586 90.2447 16.194 89.8801 15.9297C89.5246 15.6654 89.0871 15.4648 88.5676 15.3281C88.048 15.1823 87.4465 15.0911 86.7629 15.0547C86.0793 15.0182 85.3 15 84.425 15C83.4042 15 82.5201 15.0319 81.7727 15.0957C81.0344 15.1595 80.4055 15.2734 79.8859 15.4375C79.3664 15.6016 78.9426 15.8294 78.6145 16.1211C78.2954 16.4128 78.0448 16.7865 77.8625 17.2422C77.6893 17.6979 77.5708 18.2493 77.507 18.8965C77.4523 19.5345 77.425 20.2865 77.425 21.1523C77.425 22.0091 77.4523 22.7565 77.507 23.3945C77.5708 24.0234 77.6893 24.5658 77.8625 25.0215C78.0448 25.4681 78.2954 25.8372 78.6145 26.1289C78.9426 26.4206 79.3664 26.6484 79.8859 26.8125C80.4055 26.9766 81.0344 27.0905 81.7727 27.1543C82.5201 27.2181 83.4042 27.25 84.425 27.25Z" stroke="black"/>
<path d="M108.575 29.3008C107.317 29.3008 106.269 29.2142 105.43 29.041C104.601 28.877 103.922 28.6992 103.393 28.5078C102.865 28.3073 102.464 27.9974 102.19 27.5781C101.917 27.1497 101.712 26.8171 101.575 26.5801V29H98.95V8H101.575V14.7402C101.693 14.5488 101.889 14.3438 102.163 14.125C102.445 13.8971 102.851 13.6875 103.38 13.4961C103.917 13.2956 104.606 13.1315 105.444 13.0039C106.283 12.8763 107.326 12.8125 108.575 12.8125C110.325 12.8125 111.811 12.9447 113.032 13.209C114.253 13.4733 115.247 13.9245 116.012 14.5625C116.778 15.2005 117.334 16.0573 117.68 17.1328C118.027 18.1992 118.2 19.5391 118.2 21.1523C118.2 22.7383 118.027 24.0553 117.68 25.1035C117.334 26.1517 116.778 26.9857 116.012 27.6055C115.247 28.2253 114.253 28.6628 113.032 28.918C111.811 29.1732 110.325 29.3008 108.575 29.3008ZM108.575 27.25C109.596 27.25 110.475 27.2181 111.214 27.1543C111.961 27.0905 112.595 26.9766 113.114 26.8125C113.634 26.6484 114.053 26.4206 114.372 26.1289C114.7 25.8372 114.951 25.4681 115.124 25.0215C115.306 24.5658 115.425 24.0234 115.479 23.3945C115.543 22.7565 115.575 22.0091 115.575 21.1523C115.575 20.2956 115.543 19.5482 115.479 18.9102C115.425 18.2721 115.306 17.7298 115.124 17.2832C114.951 16.8275 114.7 16.4538 114.372 16.1621C114.053 15.8613 113.634 15.6289 113.114 15.4648C112.595 15.2917 111.961 15.1732 111.214 15.1094C110.475 15.0456 109.596 15.0137 108.575 15.0137C107.7 15.0137 106.921 15.0365 106.237 15.082C105.554 15.1185 104.952 15.2096 104.432 15.3555C103.913 15.5013 103.471 15.7109 103.106 15.9844C102.751 16.2578 102.459 16.6224 102.231 17.0781C102.003 17.5339 101.835 18.099 101.725 18.7734C101.625 19.4479 101.575 20.2546 101.575 21.1934C101.575 22.123 101.625 22.9206 101.725 23.5859C101.835 24.2422 102.003 24.7936 102.231 25.2402C102.459 25.6868 102.751 26.0469 103.106 26.3203C103.471 26.5846 103.913 26.7852 104.432 26.9219C104.952 27.0586 105.554 27.1497 106.237 27.1953C106.921 27.2318 107.7 27.25 108.575 27.25Z" stroke="black"/>
<path d="M125.287 29H122.662V26.375H125.287V29Z" stroke="black"/>
<path d="M145.869 26.8398C145.842 26.9492 145.637 27.2227 145.254 27.6602C144.98 27.9883 144.616 28.2799 144.16 28.5352C143.704 28.7812 143.094 28.9727 142.328 29.1094C141.572 29.2552 140.574 29.3281 139.334 29.3281C137.684 29.3281 136.276 29.2415 135.109 29.0684C133.943 28.9043 132.99 28.6491 132.252 28.3027C131.514 27.9473 130.971 27.4961 130.625 26.9492C130.288 26.4023 130.119 25.7507 130.119 24.9941C130.119 24.2012 130.21 23.5312 130.393 22.9844C130.584 22.4284 130.857 21.9635 131.213 21.5898C131.577 21.2161 132.015 20.9245 132.525 20.7148C133.036 20.5052 133.615 20.3457 134.262 20.2363C134.918 20.127 135.633 20.0586 136.408 20.0312C137.183 20.0039 138.008 19.9902 138.883 19.9902C140.132 19.9902 141.175 20.0449 142.014 20.1543C142.852 20.2546 143.536 20.3867 144.064 20.5508C144.602 20.7057 145.008 20.8743 145.281 21.0566C145.555 21.2389 145.751 21.4076 145.869 21.5625C145.869 20.5417 145.824 19.6712 145.732 18.9512C145.65 18.2311 145.509 17.6296 145.309 17.1465C145.117 16.6634 144.867 16.2806 144.557 15.998C144.247 15.7064 143.864 15.4876 143.408 15.3418C142.962 15.196 142.438 15.1048 141.836 15.0684C141.234 15.0228 140.546 15 139.771 15C138.568 15 137.57 15.0319 136.777 15.0957C135.984 15.1504 135.355 15.2643 134.891 15.4375C134.426 15.6107 134.098 15.8522 133.906 16.1621C133.715 16.4629 133.619 16.8594 133.619 17.3516H130.994C130.994 16.5221 131.14 15.8203 131.432 15.2461C131.732 14.6719 132.225 14.207 132.908 13.8516C133.601 13.487 134.508 13.2227 135.629 13.0586C136.75 12.8945 138.131 12.8125 139.771 12.8125C141.376 12.8125 142.734 12.9447 143.846 13.209C144.958 13.4733 145.855 13.9382 146.539 14.6035C147.232 15.2689 147.729 16.1667 148.029 17.2969C148.339 18.418 148.494 19.8398 148.494 21.5625V29H145.869V26.8398ZM139.771 27.25C140.929 27.25 141.895 27.1953 142.67 27.0859C143.454 26.9766 144.083 26.8125 144.557 26.5938C145.031 26.375 145.368 26.1016 145.568 25.7734C145.769 25.4453 145.869 25.0625 145.869 24.625C145.869 24.1875 145.751 23.8184 145.514 23.5176C145.286 23.2077 144.898 22.957 144.352 22.7656C143.814 22.5742 143.098 22.4375 142.205 22.3555C141.312 22.2643 140.209 22.2188 138.896 22.2188C137.584 22.2188 136.522 22.2415 135.711 22.2871C134.909 22.3327 134.289 22.4375 133.852 22.6016C133.414 22.7656 133.118 23.0072 132.963 23.3262C132.817 23.6452 132.744 24.0781 132.744 24.625C132.744 25.1719 132.822 25.6185 132.977 25.9648C133.141 26.3021 133.469 26.5664 133.961 26.7578C134.453 26.9492 135.16 27.0814 136.08 27.1543C137.01 27.2181 138.24 27.25 139.771 27.25Z" stroke="black"/>
<path d="M154.283 13.25H156.908V29H154.283V13.25ZM156.908 10.625H154.283V8H156.908V10.625Z" stroke="black"/>
</svg>
